<?xml version="1.0" standalone="no"?>
<!DOCTYPE svg PUBLIC "-//W3C//DTD SVG 20010904//EN"
 "http://www.w3.org/TR/2001/REC-SVG-20010904/DTD/svg10.dtd">
<svg version="1.0" xmlns="http://www.w3.org/2000/svg"
 width="192.000000pt" height="192.000000pt" viewBox="0 0 192.000000 192.000000"
 preserveAspectRatio="xMidYMid meet">
<metadata>
Created by potrace 1.14, written by Peter Selinger 2001-2017
</metadata>
<g transform="translate(0.000000,192.000000) scale(0.100000,-0.100000)"
fill="#000000" stroke="none">
<path d="M199 1903 c0 -10 -1 -196 -1 -413 0 -345 6 -583 17 -600 2 -3 6 -30
9 -61 3 -31 13 -75 21 -98 8 -22 12 -41 10 -41 -7 0 37 -115 72 -184 49 -98
94 -160 176 -239 108 -104 274 -205 412 -251 50 -16 52 -16 110 8 64 25 157
69 190 89 128 77 260 197 320 292 64 100 123 235 139 319 2 12 9 41 14 66 12
51 23 133 28 200 3 37 7 834 5 908 l-1 22 -760 0 c-717 0 -760 -1 -761 -17z"/>
</g>
</svg>
