<?xml version="1.0" standalone="no"?>
<!DOCTYPE svg PUBLIC "-//W3C//DTD SVG 20010904//EN"
 "http://www.w3.org/TR/2001/REC-SVG-20010904/DTD/svg10.dtd">
<svg version="1.0" xmlns="http://www.w3.org/2000/svg"
 width="1506.000000pt" height="1506.000000pt" viewBox="0 0 1506.000000 1506.000000"
 preserveAspectRatio="xMidYMid meet">
<metadata>
Created by potrace 1.14, written by Peter Selinger 2001-2017
</metadata>
<g transform="translate(0.000000,1506.000000) scale(0.100000,-0.100000)"
fill="#000000" stroke="none">
<path d="M1701 14870 c-9 -6 -6 -6219 3 -6430 10 -250 24 -501 31 -591 3 -31
7 -98 10 -150 4 -52 8 -105 10 -119 2 -14 6 -59 10 -100 3 -41 8 -91 10 -110
2 -19 7 -60 10 -90 12 -114 52 -423 60 -470 3 -14 7 -43 10 -65 3 -22 17 -105
30 -185 91 -535 214 -1031 367 -1475 32 -93 60 -177 63 -185 2 -8 31 -85 65
-170 185 -469 408 -905 658 -1290 99 -153 263 -385 323 -458 5 -7 47 -58 91
-115 45 -56 87 -107 92 -113 6 -6 36 -40 66 -75 99 -116 162 -182 335 -354
221 -220 269 -265 484 -445 52 -44 273 -217 322 -252 13 -10 61 -45 107 -78
143 -104 448 -302 624 -405 21 -12 252 -142 328 -184 259 -143 797 -389 1140
-521 96 -37 378 -140 383 -140 3 0 18 -5 34 -12 15 -6 33 -12 38 -14 6 -1 30
-9 54 -18 l44 -16 141 49 c228 80 289 102 321 116 17 7 80 32 140 55 61 24
124 49 140 55 40 17 389 169 440 192 54 24 481 237 525 262 19 11 94 52 165
92 72 40 165 94 208 121 43 26 81 48 83 48 3 0 32 18 64 40 32 22 63 40 69 40
5 0 11 3 13 8 2 4 70 52 152 107 199 133 172 114 371 264 430 324 858 736
1199 1156 219 269 390 513 560 800 42 72 81 137 86 145 69 112 279 539 363
740 172 409 303 803 413 1245 47 188 115 497 129 590 2 11 10 56 19 100 17 92
56 333 62 385 2 19 11 80 19 135 8 55 17 132 21 170 3 39 8 78 9 87 2 9 6 48
10 85 3 37 8 87 10 111 3 23 7 61 10 85 7 64 16 188 30 387 2 36 7 124 10 195
4 72 9 155 12 185 9 86 15 6580 6 6581 -27 4 -11596 3 -11602 -1z"/>
</g>
</svg>
