<?xml version="1.0" encoding="UTF-8"?>
<svg width="150px" height="30px" viewBox="0 0 150 30" version="1.1" xmlns="http://www.w3.org/2000/svg" xmlns:xlink="http://www.w3.org/1999/xlink">
    <title>9AEAAFEE-FE30-4D73-82C0-3E223AD90244</title>
    <g id="Page-1" stroke="none" stroke-width="1" fill="none" fill-rule="evenodd">
        <g id="Landingpage-Webhosting" transform="translate(-160.000000, -25.000000)" fill-rule="nonzero">
            <g id="Logos-hosttech/hosttech" transform="translate(160.000000, 25.000000)">
                <g id="hosttech-rgb-pink" transform="translate(0.192500, 0.157500)">
                    <path d="M22.615,18.5775 C22.6149659,15.288145 24.8508961,12.4197544 28.0407843,11.6169659 C31.2306726,10.8141773 34.558004,12.2824804 36.115,15.18 L39.365,15.18 C38.3014345,12.1712386 35.8844638,9.83806344 32.8400622,8.8812796 C29.7956606,7.92449576 26.4785219,8.4555752 23.885,10.315 L23.885,10.3 C23.885,10.3 21.1375,12.3425 18.19,14.865 C17.0575,15.8425 15.8625,16.88 14.8375,17.7825 C13.21,19.2125 14.875,20.3075 14.875,20.3075 L22.835,20.3075 C22.6913762,19.7419656 22.6174938,19.1609815 22.615,18.5775 L22.615,18.5775 Z M44.23,16.705 L36.715,16.705 C37.6944791,20.2571761 35.8220514,23.9734621 32.384412,25.3001004 C28.9467725,26.6267387 25.0632398,25.131767 23.4025,21.8425 L20.1775,21.8425 C21.2202393,24.9277442 23.6800822,27.3252665 26.7910634,28.2885075 C29.9020445,29.2517484 33.286295,28.6637099 35.89,26.7075 L35.89,26.7075 C35.89,26.7075 38.64,24.6775 41.5925,22.1425 C42.985,20.9475 44.4425,19.67 45.5925,18.6425 C46.8875,17.5125 44.23,16.705 44.23,16.705 Z" id="Shape" fill="#DC0046"></path>
                    <path d="M45.1425,22.535 L45.1425,24.065 C45.1425,25.1983333 45.5691667,25.9225 46.4225,26.2375 C47.2758333,26.5524947 49.0583333,26.71 51.77,26.71 C53.4366667,26.71 54.61,26.4958333 55.29,26.0675 C55.97,25.6391667 56.3091667,24.7708333 56.3075,23.4625 L56.3075,22.8425 C56.3075,21.1191667 55.3958333,20.2325 53.5725,20.1825 L52.76,20.125 L47.9675,19.86 C44.0691667,19.66 42.12,17.8633333 42.12,14.47 C42.12,12.0833333 42.7033333,10.5 43.87,9.72 C45.0366667,8.94 47.3616667,8.55083333 50.845,8.55249467 C53.7233333,8.55249467 55.7725,8.87333333 56.9925,9.515 C58.2125,10.1566667 58.8533333,11.4066667 58.915,13.265 L58.915,13.9825 L55.7625,13.9825 L55.7625,13.305 C55.7625,12.39 55.4991667,11.7816667 54.9725,11.48 C54.4458333,11.1783333 53.385,11.0275 51.79,11.0275 L49.945,11.0275 C48.0116667,11.0275 46.75,11.2225 46.16,11.6125 C45.57,12.0025 45.2758333,12.7458333 45.2775,13.8425 L45.2775,14.745 C45.2775,16.265 46.0633333,17.0808333 47.635,17.1925 L52.8225,17.55 L54.1625,17.625 C57.6958333,17.84 59.4625,19.62 59.4625,22.965 L59.4625,23.4175 C59.4625,25.3291667 58.9341667,26.7691667 57.8775,27.7375 C56.8208333,28.7058333 54.5525,29.19 51.0725,29.19 C47.7041667,29.19 45.3475,28.8308333 44.0025,28.1125 C42.6575,27.3941667 41.985,26.1533333 41.985,24.39 L41.985,22.535 L45.1425,22.535 Z" id="Path" fill="#FFFFFF"></path>
                    <path d="M60.6775,8.755 L63.3925,8.755 L63.3925,3.935 L66.4475,3.935 L66.4475,8.755 L74.2875,8.755 L74.2875,11.2325 L66.4475,11.2325 L66.4475,23.9825 C66.4475,25.0508333 66.6358333,25.7733333 67.0125,26.15 C67.3891667,26.5266667 68.1108333,26.7091667 69.1775,26.6975 C70.3575,26.6975 71.1675,26.4908333 71.6075,26.0775 C72.0475,25.6641667 72.2733333,24.85 72.285,23.635 L72.285,21.635 L75.2025,21.635 L75.2025,23.255 C75.2025,27.1983333 73.2341667,29.17 69.2975,29.17 C66.8191667,29.17 65.2158333,28.7425 64.4875,27.8875 C63.7591667,27.0325 63.3941667,25.4983333 63.3925,23.285 L63.3925,11.2325 L60.6775,11.2325 L60.6775,8.755 Z" id="Path" fill="#FFFFFF"></path>
                    <path d="M76.465,8.755 L79.18,8.755 L79.18,3.935 L82.2325,3.935 L82.2325,8.755 L90.0725,8.755 L90.0725,11.2325 L82.2325,11.2325 L82.2325,23.9825 C82.2325,25.0508333 82.4208333,25.7733333 82.7975,26.15 C83.1741667,26.5266667 83.8958333,26.7091667 84.9625,26.6975 C86.1425,26.6975 86.9525,26.4908333 87.3925,26.0775 C87.8325,25.6641667 88.0583333,24.85 88.07,23.635 L88.07,21.635 L90.9875,21.635 L90.9875,23.255 C90.9875,27.1983333 89.0191667,29.17 85.0825,29.17 C82.6041667,29.17 81.0008333,28.7425 80.2725,27.8875 C79.5441667,27.0325 79.1791667,25.4983333 79.1775,23.285 L79.1775,11.2325 L76.465,11.2325 L76.465,8.755 Z" id="Path" fill="#FFFFFF"></path>
                    <path d="M96.0175,19.5125 L96.0175,21.3775 C96.0175,23.3625 96.3383333,24.75 96.98,25.54 C97.6216667,26.33 99.0383333,26.7191667 101.23,26.7075 L102.0025,26.7075 C104.335833,26.7075 105.813333,26.4933333 106.435,26.065 C107.056667,25.6366667 107.3625,24.5625 107.3525,22.8425 L110.5075,22.8425 L110.5075,23.4275 C110.5075,25.6441667 109.878333,27.1616667 108.62,27.98 C107.361667,28.7983333 105.235,29.2016667 102.24,29.19 C98.4783333,29.19 95.9783333,28.5483333 94.74,27.265 C93.5016667,25.9816667 92.8791667,23.2908333 92.8725,19.1925 C92.8725,14.9308333 93.4558333,12.0975 94.6225,10.6925 C95.7891667,9.2875 98.2116667,8.5775 101.89,8.5625 C105.273333,8.5625 107.556667,9.16666667 108.74,10.375 C109.923333,11.5833333 110.515,13.8783333 110.515,17.26 L110.515,19.525 L96.0175,19.5125 Z M96.0175,17.035 L107.3525,17.035 C107.264167,14.675 106.9625,13.0866667 106.4475,12.27 C105.9325,11.4533333 104.48,11.0366667 102.09,11.02 C99.6133333,11.02 98.0041667,11.34 97.2625,11.98 C96.5208333,12.62 96.1058333,14.305 96.0175,17.035 L96.0175,17.035 Z" id="Shape" fill="#FFFFFF"></path>
                    <path d="M127.595,21.6525 L130.65,21.6525 L130.65,22.8025 C130.65,25.3758333 129.9325,27.0833333 128.4975,27.925 C127.0625,28.7666667 124.968333,29.1833333 122.215,29.1751225 C118.24,29.1751225 115.705,28.4516667 114.61,27.005 C113.515,25.5583333 112.9675,22.8675 112.9675,18.9325 C112.9675,14.7458333 113.584167,11.9666667 114.8175,10.595 C116.050833,9.22333333 118.415833,8.53833333 121.9125,8.53999697 C124.994167,8.53999697 127.160833,9.03166667 128.4125,10.015 C129.664167,10.9983333 130.295833,12.6216667 130.3075,14.885 L130.3075,15.51 L127.2575,15.51 L127.2575,14.81 C127.2575,13.3233333 126.924167,12.3233333 126.2575,11.81 C125.590833,11.2966667 124.113333,11.0383333 121.825,11.035 C119.196667,11.035 117.586667,11.535 116.995,12.535 C116.403333,13.535 116.114167,15.7958333 116.1275,19.3175 C116.1275,22.7975 116.536667,24.9016667 117.355,25.63 C118.173333,26.3583333 119.858333,26.7225 122.41,26.7225 C124.598333,26.7225 126.006667,26.4591667 126.635,25.9325 C127.263333,25.4058333 127.583333,23.9791667 127.595,21.6525 Z" id="Path" fill="#FFFFFF"></path>
                    <path d="M132.68,0 L135.735,0 L135.735,11.2675 C136.526667,9.4575 138.639167,8.5525 142.0725,8.5525 C144.905833,8.5525 146.8675,9.08666667 147.9575,10.155 C149.0475,11.2233333 149.600833,13.0283333 149.6175,15.57 L149.6175,28.9825 L146.5575,28.9825 L146.5575,15.5175 C146.5575,13.7191667 146.218333,12.525 145.54,11.935 C144.861667,11.345 143.635833,11.0433333 141.8625,11.03 C139.560833,11.03 137.964167,11.4133333 137.0725,12.18 C136.180833,12.9466667 135.734167,14.6191667 135.7325,17.1975 L135.7325,28.9825 L132.68,28.9825 L132.68,0 Z" id="Path" fill="#FFFFFF"></path>
                    <path d="M0,0 L3.0575,0 L3.0575,11.2675 C3.84916667,9.4575 5.96166667,8.5525 9.395,8.5525 C12.2283333,8.5525 14.19,9.08666667 15.28,10.155 C16.37,11.2233333 16.9233333,13.0283333 16.94,15.57 L16.94,28.9825 L13.88,28.9825 L13.88,15.5175 C13.88,13.7191667 13.5408333,12.525 12.8625,11.935 C12.1841667,11.345 10.9583333,11.0433333 9.185,11.03 C6.88333333,11.03 5.28666667,11.4133333 4.395,12.18 C3.50333333,12.9466667 3.0575,14.6183333 3.0575,17.195 L3.0575,28.98 L0,28.98 L0,0 Z" id="Path" fill="#FFFFFF"></path>
                </g>
            </g>
        </g>
    </g>
</svg>